<svg xmlns="http://www.w3.org/2000/svg" width="1200" height="630" viewBox="0 0 1200 630">
  <defs>
    <linearGradient id="grad" x1="0%" y1="0%" x2="100%" y2="100%">
      <stop offset="0%" stop-color="#22c55e"/>
      <stop offset="100%" stop-color="#06b6d4"/>
    </linearGradient>
    <linearGradient id="bggrad" x1="0%" y1="0%" x2="100%" y2="100%">
      <stop offset="0%" stop-color="#0a0a0f"/>
      <stop offset="100%" stop-color="#0f1019"/>
    </linearGradient>
  </defs>

  <!-- Background -->
  <rect width="1200" height="630" fill="url(#bggrad)"/>

  <!-- Subtle grid pattern -->
  <g opacity="0.03" stroke="#fff" stroke-width="1">
    <line x1="0" y1="0" x2="1200" y2="630"/>
    <line x1="200" y1="0" x2="1200" y2="500"/>
    <line x1="400" y1="0" x2="1200" y2="400"/>
    <line x1="0" y1="200" x2="800" y2="630"/>
    <line x1="0" y1="400" x2="400" y2="630"/>
  </g>

  <!-- Shield icon -->
  <g transform="translate(80, 80)">
    <rect width="52" height="52" rx="12" fill="rgba(34,197,94,0.12)"/>
    <path d="M26 10 L38 16 L38 28 C38 36 32 42 26 46 C20 42 14 36 14 28 L14 16 Z" fill="none" stroke="url(#grad)" stroke-width="2.5" stroke-linejoin="round"/>
    <path d="M21 28 L24 31 L31 24" fill="none" stroke="url(#grad)" stroke-width="2.5" stroke-linecap="round" stroke-linejoin="round"/>
  </g>

  <!-- Logo text -->
  <text x="145" y="118" font-family="system-ui, -apple-system, sans-serif" font-size="34" font-weight="700" fill="#22c55e">safenpm</text>
  <text x="310" y="118" font-family="system-ui, -apple-system, sans-serif" font-size="24" font-weight="400" fill="#555570">v0.5.0</text>

  <!-- Title -->
  <text x="80" y="230" font-family="system-ui, -apple-system, sans-serif" font-size="58" font-weight="800" fill="#e4e4ef" letter-spacing="-1">Stop supply-chain attacks</text>
  <text x="80" y="300" font-family="system-ui, -apple-system, sans-serif" font-size="58" font-weight="800" fill="url(#grad)" letter-spacing="-1">before they run</text>

  <!-- Subtitle -->
  <text x="80" y="360" font-family="system-ui, -apple-system, sans-serif" font-size="22" fill="#8888a0">Sandboxed npm installs · Static analysis · Typosquat detection</text>
  <text x="80" y="392" font-family="system-ui, -apple-system, sans-serif" font-size="22" fill="#8888a0">Decentralized threat intelligence network</text>

  <!-- Install command box -->
  <rect x="80" y="430" width="400" height="52" rx="10" fill="#12121a" stroke="#1e1e2e" stroke-width="1"/>
  <text x="100" y="463" font-family="monospace" font-size="20" fill="#555570">$</text>
  <text x="124" y="463" font-family="monospace" font-size="20" fill="#e4e4ef">npm install -g safenpm</text>

  <!-- Bottom badges -->
  <g transform="translate(80, 520)">
    <rect width="100" height="32" rx="16" fill="rgba(255,255,255,0.04)" stroke="#1e1e2e" stroke-width="1"/>
    <text x="50" y="21" font-family="system-ui" font-size="13" fill="#8888a0" text-anchor="middle">Zero deps</text>

    <rect x="112" width="110" height="32" rx="16" fill="rgba(255,255,255,0.04)" stroke="#1e1e2e" stroke-width="1"/>
    <text x="167" y="21" font-family="system-ui" font-size="13" fill="#8888a0" text-anchor="middle">TypeScript</text>

    <rect x="234" width="220" height="32" rx="16" fill="rgba(255,255,255,0.04)" stroke="#1e1e2e" stroke-width="1"/>
    <text x="344" y="21" font-family="system-ui" font-size="13" fill="#8888a0" text-anchor="middle">macOS + Linux + Windows</text>

    <rect x="466" width="110" height="32" rx="16" fill="rgba(255,255,255,0.04)" stroke="#1e1e2e" stroke-width="1"/>
    <text x="521" y="21" font-family="system-ui" font-size="13" fill="#8888a0" text-anchor="middle">MIT License</text>
  </g>
</svg>
